<svg xmlns="http://www.w3.org/2000/svg" width="167" height="25" fill="none" viewBox="0 0 167 25"><path fill="#F9FDF5" d="M48.162.978H31.886a.724.724 0 0 0-.727.72v21.56c0 .398.326.72.727.72h16.232a.724.724 0 0 0 .727-.72v-2.646a.724.724 0 0 0-.727-.72h-11.36a.724.724 0 0 1-.727-.72v-4.385c0-.397.326-.72.728-.72h10.22a.724.724 0 0 0 .726-.72V11.31a.724.724 0 0 0-.727-.72h-10.22a.724.724 0 0 1-.727-.721V5.788c0-.398.326-.72.728-.72h11.404a.724.724 0 0 0 .727-.721V1.699a.724.724 0 0 0-.727-.72ZM65.533 13.063a.709.709 0 0 1-.01-.783l6.561-10.202a.715.715 0 0 0-.609-1.1h-3.58a.73.73 0 0 0-.633.365l-5.055 8.053a.724.724 0 0 1-.614.337h-.043a.725.725 0 0 1-.603-.323l-5.358-8.083a.729.729 0 0 0-.624-.35h-3.833a.715.715 0 0 0-.6 1.114l6.563 9.715a.71.71 0 0 1 .007.784l-6.684 10.285a.715.715 0 0 0 .607 1.102h3.537c.26 0 .499-.137.63-.36l5.273-8.28a.723.723 0 0 1 1.216-.008l5.448 8.297c.13.218.368.35.624.35h3.83c.577 0 .92-.639.599-1.113l-6.65-9.801h.001ZM106.815.5c-7.593 0-12.202 4.609-12.202 11.912 0 7.304 4.388 12.088 12.202 12.088 7.813 0 12.199-4.783 12.199-12.088C119.014 5.107 114.493.5 106.815.5Zm0 19.913c-5.136 0-7.374-3.132-7.374-8 0-4.87 2.282-7.826 7.374-7.826s7.372 3.132 7.372 7.825c0 4.694-2.239 8-7.372 8ZM166.362 23l-8.353-21.56a.726.726 0 0 0-.678-.462h-5.626a.727.727 0 0 0-.679.461l-8.169 20.985a.73.73 0 0 1-1.255.18l-5.236-6.741a.716.716 0 0 1 .318-1.108c2.71-1.057 4.243-3.174 4.243-6.385 0-4.783-3.029-7.392-8.998-7.392h-9.63a.723.723 0 0 0-.727.72v21.56c0 .398.325.72.727.72h3.417a.723.723 0 0 0 .727-.72v-6.993c0-.398.326-.72.728-.72h3.281c.238 0 .461.115.596.309l5.491 7.816a.728.728 0 0 0 .596.309h9.607a.725.725 0 0 0 .684-.478l1.675-4.652a.727.727 0 0 1 .685-.478h9.242c.308 0 .583.191.685.478l1.675 4.652a.727.727 0 0 0 .685.478h3.608c.51 0 .862-.506.679-.979h.002Zm-34.741-11.02h-4.45a.724.724 0 0 1-.728-.721V5.657c0-.398.326-.72.728-.72h4.363c3.38 0 4.565 1.173 4.565 3.564 0 2.392-1.274 3.478-4.477 3.478h-.001Zm25.666 2.87h-5.711a.722.722 0 0 1-.686-.962l.667-1.866a263.2 263.2 0 0 0 2.168-6.458.72.72 0 0 1 .691-.498h.067a.72.72 0 0 1 .694.509c.633 2.084 1.4 4.359 2.13 6.447l.667 1.866a.722.722 0 0 1-.686.961h-.001ZM84.155.978h-9.103a.724.724 0 0 0-.727.72v21.56c0 .398.326.72.727.72h3.418a.724.724 0 0 0 .727-.72v-5.862c0-.398.326-.72.727-.72h4.407c5.793 0 8.996-3.392 8.996-7.827 0-5.174-3.029-7.87-9.173-7.87h.001Zm-.35 11.826h-3.88a.724.724 0 0 1-.727-.72V5.699c0-.398.326-.72.727-.72h3.793c3.554 0 4.783 1.217 4.783 3.913 0 2.696-1.36 3.912-4.696 3.912ZM19.645.978c-2.324 0-4.206 1.866-4.206 4.167V7.55a.786.786 0 0 1-.79.783H9.793a.786.786 0 0 1-.79-.783V1.761a.786.786 0 0 0-.79-.783H1.38c-.436 0-.79.351-.79.783V8.53c0 .433.354.783.79.783h5.843c.437 0 .79.35.79.783v4.808a.786.786 0 0 1-.79.783H4.797C2.474 15.686.59 17.55.59 19.852c0 2.303 1.883 4.168 4.206 4.168 2.323 0 4.206-1.865 4.206-4.167v-2.405c0-.433.354-.782.79-.782h4.855c.437 0 .79.35.79.782v5.79c0 .432.354.782.79.782h6.831c.437 0 .79-.35.79-.783V16.47a.786.786 0 0 0-.79-.783h-5.842a.786.786 0 0 1-.79-.783v-4.809c0-.432.354-.782.79-.782h2.427c2.323 0 4.206-1.866 4.206-4.167 0-2.302-1.883-4.168-4.206-4.168Z"/></svg>